<svg width="24" height="24" viewBox="0 0 24 24" fill="none" xmlns="http://www.w3.org/2000/svg">
<g clip-path="url(#clip0_11_147)">
<mask id="mask0_11_147" style="mask-type:luminance" maskUnits="userSpaceOnUse" x="0" y="0" width="24" height="24">
<path d="M23.5222 9.77372H12.2492V14.3873H18.7267C18.6226 15.0403 18.3888 15.6826 18.0464 16.2683C17.6541 16.9393 17.1691 17.4502 16.672 17.8392C15.183 19.0046 13.447 19.2429 12.2413 19.2429C9.19573 19.2429 6.59347 17.2325 5.58608 14.5006C5.54543 14.4014 5.51843 14.299 5.48556 14.1978C5.26295 13.5025 5.14131 12.7661 5.14131 12.0008C5.14131 11.2042 5.27303 10.4417 5.51318 9.7216C6.46047 6.88141 9.1214 4.76006 12.2435 4.76006C12.8715 4.76006 13.4762 4.83641 14.0497 4.98869C15.3603 5.3367 16.2874 6.02212 16.8555 6.56428L20.2831 3.13576C18.1981 1.18317 15.4801 2.95218e-09 12.2378 2.95218e-09C9.64586 -5.69793e-05 7.25285 0.824781 5.29186 2.21878C3.70155 3.34928 2.39727 4.86288 1.51705 6.62075C0.69831 8.25066 0.25 10.0569 0.25 11.999C0.25 13.9411 0.698995 15.7661 1.51774 17.381V17.3918C2.38253 19.1062 3.64715 20.5823 5.18416 21.7076C6.5269 22.6907 8.93457 24 12.2378 24C14.1374 24 15.821 23.6502 17.3058 22.9946C18.3769 22.5217 19.3259 21.9049 20.1851 21.1122C21.3204 20.0647 22.2095 18.7691 22.8163 17.2785C23.4232 15.7878 23.7478 14.1022 23.7478 12.2747C23.7478 11.4236 23.6641 10.5592 23.5222 9.77363V9.77372Z" fill="white"/>
</mask>
<g mask="url(#mask0_11_147)">
<g filter="url(#filter0_f_11_147)">
<path d="M0.0771484 12.0804C0.0896087 13.9919 0.622886 15.9641 1.43009 17.5562V17.5672C2.01333 18.7234 2.81046 19.6367 3.71837 20.5416L9.20193 18.498C8.16447 17.9598 8.00617 17.6299 7.26248 17.0281C6.5025 16.2454 5.93608 15.3468 5.58333 14.2932H5.56912L5.58333 14.2823C5.35127 13.5865 5.32838 12.848 5.31981 12.0804H0.0771484Z" fill="url(#paint0_radial_11_147)"/>
</g>
<g filter="url(#filter1_f_11_147)">
<path d="M12.2493 -0.0874023C11.7073 1.85739 11.9145 3.74779 12.2493 4.84771C12.8751 4.84819 13.4781 4.92439 14.0498 5.07619C15.3604 5.42421 16.2874 6.10964 16.8554 6.6518L20.3708 3.13569C18.2883 1.18543 15.7821 -0.0843296 12.2493 -0.0874023Z" fill="url(#paint1_radial_11_147)"/>
</g>
<g filter="url(#filter2_f_11_147)">
<path d="M12.2376 -0.102783C9.57905 -0.102842 7.12461 0.743172 5.11328 2.17297C4.36647 2.70385 3.68114 3.31711 3.07089 3.99906C2.91103 5.53093 4.26764 7.41374 6.95416 7.39816C8.25763 5.84951 10.1855 4.84754 12.3311 4.84754C12.3331 4.84754 12.335 4.8477 12.3369 4.84771L12.2493 -0.102433C12.2453 -0.102435 12.2415 -0.102783 12.2376 -0.102783Z" fill="url(#paint2_radial_11_147)"/>
</g>
<g filter="url(#filter3_f_11_147)">
<path d="M21.0121 12.6347L18.6392 14.2997C18.535 14.9526 18.3011 15.595 17.9587 16.1806C17.5664 16.8517 17.0814 17.3626 16.5843 17.7516C15.0984 18.9146 13.367 19.1541 12.1616 19.1551C10.9158 21.3223 10.6974 22.4078 12.2493 24.1569C14.1695 24.1555 15.8719 23.8014 17.3736 23.1384C18.459 22.6592 19.4207 22.0341 20.2914 21.2307C21.4419 20.1692 22.3431 18.8561 22.9582 17.3455C23.5732 15.8349 23.902 14.1267 23.902 12.2747L21.0121 12.6347Z" fill="url(#paint3_radial_11_147)"/>
</g>
<g filter="url(#filter4_f_11_147)">
<path d="M12.074 9.59839V14.5626H23.4905C23.591 13.8827 23.923 13.003 23.923 12.2747C23.923 11.4235 23.8394 10.384 23.6975 9.59839H12.074Z" fill="#3086FF"/>
</g>
<g filter="url(#filter5_f_11_147)">
<path d="M3.12534 3.82385C2.42082 4.61117 1.81894 5.4924 1.34172 6.44543C0.522997 8.07534 0.074707 10.0569 0.074707 11.9989C0.074707 12.0263 0.0769247 12.0531 0.0771035 12.0804C0.439691 12.7904 5.0856 12.6545 5.31977 12.0804C5.31948 12.0536 5.31652 12.0275 5.31652 12.0006C5.31652 11.2041 5.44828 10.617 5.68843 9.89683C5.9847 9.00856 6.44858 8.19058 7.04176 7.48582C7.17623 7.31048 7.5349 6.93354 7.63954 6.70744C7.67941 6.62132 7.56718 6.57298 7.5609 6.54266C7.55388 6.50876 7.40341 6.53602 7.3697 6.51077C7.26266 6.43058 7.05071 6.38871 6.922 6.35149C6.64691 6.27193 6.191 6.09648 5.93777 5.91462C5.13733 5.33973 3.88817 4.65305 3.12534 3.82385Z" fill="url(#paint4_radial_11_147)"/>
</g>
<g filter="url(#filter6_f_11_147)">
<path d="M5.95495 6.54603C7.81109 7.69442 8.34489 5.96637 9.57896 5.42563L7.43225 0.878784C6.64257 1.21778 5.89648 1.63895 5.20422 2.13105C4.1704 2.86596 3.25745 3.76277 2.5033 4.78334L5.95495 6.54603Z" fill="url(#paint5_radial_11_147)"/>
</g>
<g filter="url(#filter7_f_11_147)">
<path d="M6.71042 18.1467C4.21879 19.0654 3.82872 19.0984 3.59937 20.6755C4.03765 21.1123 4.50855 21.5164 5.00896 21.8828C6.35171 22.8659 8.93457 24.1752 12.2378 24.1752C12.2417 24.1752 12.2454 24.1748 12.2493 24.1748V19.0674C12.2468 19.0674 12.2439 19.0676 12.2414 19.0676C11.0045 19.0676 10.016 18.7357 9.00255 18.1587C8.75267 18.0164 8.29933 18.3984 8.06887 18.2276C7.75103 17.9921 6.9861 18.4306 6.71042 18.1467Z" fill="url(#paint6_radial_11_147)"/>
</g>
<g opacity="0.5" filter="url(#filter8_f_11_147)">
<path d="M10.79 18.9065V24.0863C11.2522 24.1416 11.7332 24.1752 12.2378 24.1752C12.7436 24.1752 13.233 24.1486 13.7085 24.0999V18.9414C13.1756 19.0345 12.6737 19.0675 12.2414 19.0675C11.7435 19.0675 11.2592 19.0083 10.79 18.9065Z" fill="url(#paint7_linear_11_147)"/>
</g>
</g>
</g>
<defs>
<filter id="filter0_f_11_147" x="0.035956" y="12.0393" width="9.20714" height="8.54357" filterUnits="userSpaceOnUse" color-interpolation-filters="sRGB">
<feFlood flood-opacity="0" result="BackgroundImageFix"/>
<feBlend mode="normal" in="SourceGraphic" in2="BackgroundImageFix" result="shape"/>
<feGaussianBlur stdDeviation="0.0205962" result="effect1_foregroundBlur_11_147"/>
</filter>
<filter id="filter1_f_11_147" x="11.8748" y="-0.128595" width="8.53722" height="6.82164" filterUnits="userSpaceOnUse" color-interpolation-filters="sRGB">
<feFlood flood-opacity="0" result="BackgroundImageFix"/>
<feBlend mode="normal" in="SourceGraphic" in2="BackgroundImageFix" result="shape"/>
<feGaussianBlur stdDeviation="0.0205962" result="effect1_foregroundBlur_11_147"/>
</filter>
<filter id="filter2_f_11_147" x="3.01704" y="-0.143976" width="9.36107" height="7.58336" filterUnits="userSpaceOnUse" color-interpolation-filters="sRGB">
<feFlood flood-opacity="0" result="BackgroundImageFix"/>
<feBlend mode="normal" in="SourceGraphic" in2="BackgroundImageFix" result="shape"/>
<feGaussianBlur stdDeviation="0.0205962" result="effect1_foregroundBlur_11_147"/>
</filter>
<filter id="filter3_f_11_147" x="11.1146" y="12.2335" width="12.8287" height="11.9646" filterUnits="userSpaceOnUse" color-interpolation-filters="sRGB">
<feFlood flood-opacity="0" result="BackgroundImageFix"/>
<feBlend mode="normal" in="SourceGraphic" in2="BackgroundImageFix" result="shape"/>
<feGaussianBlur stdDeviation="0.0205962" result="effect1_foregroundBlur_11_147"/>
</filter>
<filter id="filter4_f_11_147" x="12.0328" y="9.5572" width="11.9314" height="5.04662" filterUnits="userSpaceOnUse" color-interpolation-filters="sRGB">
<feFlood flood-opacity="0" result="BackgroundImageFix"/>
<feBlend mode="normal" in="SourceGraphic" in2="BackgroundImageFix" result="shape"/>
<feGaussianBlur stdDeviation="0.0205962" result="effect1_foregroundBlur_11_147"/>
</filter>
<filter id="filter5_f_11_147" x="0.0335146" y="3.78266" width="7.65575" height="8.82176" filterUnits="userSpaceOnUse" color-interpolation-filters="sRGB">
<feFlood flood-opacity="0" result="BackgroundImageFix"/>
<feBlend mode="normal" in="SourceGraphic" in2="BackgroundImageFix" result="shape"/>
<feGaussianBlur stdDeviation="0.0205962" result="effect1_foregroundBlur_11_147"/>
</filter>
<filter id="filter6_f_11_147" x="2.2137" y="0.589184" width="7.65488" height="6.63242" filterUnits="userSpaceOnUse" color-interpolation-filters="sRGB">
<feFlood flood-opacity="0" result="BackgroundImageFix"/>
<feBlend mode="normal" in="SourceGraphic" in2="BackgroundImageFix" result="shape"/>
<feGaussianBlur stdDeviation="0.1448" result="effect1_foregroundBlur_11_147"/>
</filter>
<filter id="filter7_f_11_147" x="3.55817" y="18.085" width="8.73229" height="6.13134" filterUnits="userSpaceOnUse" color-interpolation-filters="sRGB">
<feFlood flood-opacity="0" result="BackgroundImageFix"/>
<feBlend mode="normal" in="SourceGraphic" in2="BackgroundImageFix" result="shape"/>
<feGaussianBlur stdDeviation="0.0205962" result="effect1_foregroundBlur_11_147"/>
</filter>
<filter id="filter8_f_11_147" x="10.7488" y="18.8653" width="3.00084" height="5.35106" filterUnits="userSpaceOnUse" color-interpolation-filters="sRGB">
<feFlood flood-opacity="0" result="BackgroundImageFix"/>
<feBlend mode="normal" in="SourceGraphic" in2="BackgroundImageFix" result="shape"/>
<feGaussianBlur stdDeviation="0.0205962" result="effect1_foregroundBlur_11_147"/>
</filter>
<radialGradient id="paint0_radial_11_147" cx="0" cy="0" r="1" gradientUnits="userSpaceOnUse" gradientTransform="translate(9.09216 20.3615) rotate(-92.3395) scale(11.9619 17.5706)">
<stop offset="0.141612" stop-color="#1ABD4D"/>
<stop offset="0.247515" stop-color="#6EC30D"/>
<stop offset="0.311547" stop-color="#8AC502"/>
<stop offset="0.366013" stop-color="#A2C600"/>
<stop offset="0.445673" stop-color="#C8C903"/>
<stop offset="0.540305" stop-color="#EBCB03"/>
<stop offset="0.615636" stop-color="#F7CD07"/>
<stop offset="0.699345" stop-color="#FDCD04"/>
<stop offset="0.771242" stop-color="#FDCE05"/>
<stop offset="0.860566" stop-color="#FFCE0A"/>
</radialGradient>
<radialGradient id="paint1_radial_11_147" cx="0" cy="0" r="1" gradientTransform="matrix(8.29246 -2.03557e-05 -1.16554e-05 10.7093 20.042 6.3974)" gradientUnits="userSpaceOnUse">
<stop offset="0.408458" stop-color="#FB4E5A"/>
<stop offset="1" stop-color="#FF4540"/>
</radialGradient>
<radialGradient id="paint2_radial_11_147" cx="0" cy="0" r="1" gradientUnits="userSpaceOnUse" gradientTransform="translate(15.5135 -1.65299) rotate(151.02) scale(13.2813 18.0227)">
<stop offset="0.231273" stop-color="#FF4541"/>
<stop offset="0.311547" stop-color="#FF4540"/>
<stop offset="0.457516" stop-color="#FF4640"/>
<stop offset="0.540305" stop-color="#FF473F"/>
<stop offset="0.699346" stop-color="#FF5138"/>
<stop offset="0.771242" stop-color="#FF5B33"/>
<stop offset="0.860566" stop-color="#FF6C29"/>
<stop offset="1" stop-color="#FF8C18"/>
</radialGradient>
<radialGradient id="paint3_radial_11_147" cx="0" cy="0" r="1" gradientUnits="userSpaceOnUse" gradientTransform="translate(12.422 22.6036) rotate(-127.454) scale(34.6477 12.7893)">
<stop offset="0.131546" stop-color="#0CBA65"/>
<stop offset="0.209784" stop-color="#0BB86D"/>
<stop offset="0.297297" stop-color="#09B479"/>
<stop offset="0.396257" stop-color="#08AD93"/>
<stop offset="0.477124" stop-color="#0AA6A9"/>
<stop offset="0.568425" stop-color="#0D9CC6"/>
<stop offset="0.667385" stop-color="#1893DD"/>
<stop offset="0.768727" stop-color="#258BF1"/>
<stop offset="0.858506" stop-color="#3086FF"/>
</radialGradient>
<radialGradient id="paint4_radial_11_147" cx="0" cy="0" r="1" gradientUnits="userSpaceOnUse" gradientTransform="translate(11.2196 2.16398) rotate(96.6178) scale(12.9384 17.8896)">
<stop offset="0.366013" stop-color="#FF4E3A"/>
<stop offset="0.457516" stop-color="#FF8A1B"/>
<stop offset="0.540305" stop-color="#FFA312"/>
<stop offset="0.615636" stop-color="#FFB60C"/>
<stop offset="0.771242" stop-color="#FFCD0A"/>
<stop offset="0.860566" stop-color="#FECF0A"/>
<stop offset="0.915033" stop-color="#FECF08"/>
<stop offset="1" stop-color="#FDCD01"/>
</radialGradient>
<radialGradient id="paint5_radial_11_147" cx="0" cy="0" r="1" gradientUnits="userSpaceOnUse" gradientTransform="translate(9.12276 2.03064) rotate(132.119) scale(6.42638 18.1259)">
<stop offset="0.315904" stop-color="#FF4C3C"/>
<stop offset="0.603818" stop-color="#FF692C"/>
<stop offset="0.726837" stop-color="#FF7825"/>
<stop offset="0.884534" stop-color="#FF8D1B"/>
<stop offset="1" stop-color="#FF9F13"/>
</radialGradient>
<radialGradient id="paint6_radial_11_147" cx="0" cy="0" r="1" gradientUnits="userSpaceOnUse" gradientTransform="translate(15.5134 25.6525) rotate(-151.02) scale(13.2813 18.0227)">
<stop offset="0.231273" stop-color="#0FBC5F"/>
<stop offset="0.311547" stop-color="#0FBC5F"/>
<stop offset="0.366013" stop-color="#0FBC5E"/>
<stop offset="0.457516" stop-color="#0FBC5D"/>
<stop offset="0.540305" stop-color="#12BC58"/>
<stop offset="0.699346" stop-color="#28BF3C"/>
<stop offset="0.771242" stop-color="#38C02B"/>
<stop offset="0.860566" stop-color="#52C218"/>
<stop offset="0.915033" stop-color="#67C30F"/>
<stop offset="1" stop-color="#86C504"/>
</radialGradient>
<linearGradient id="paint7_linear_11_147" x1="10.79" y1="21.5408" x2="13.7085" y2="21.5408" gradientUnits="userSpaceOnUse">
<stop stop-color="#0FBC5C"/>
<stop offset="1" stop-color="#0CBA65"/>
</linearGradient>
<clipPath id="clip0_11_147">
<rect width="24" height="24" fill="white"/>
</clipPath>
</defs>
</svg>
